<svg xmlns="http://www.w3.org/2000/svg" viewBox="0 0 128.65 90.52"><path d="M77.72,90.23a343.58,343.58,0,0,0,2-69.94Q79,10.35,77.7.46c0-.32-.53-.58-.7-.19a221.21,221.21,0,0,1-22.46,39q-3.9,5.41-8.11,10.6c-.17.22-.09.68.27.64l32.05-4c10.51-1.32,21-2.89,31.57-3.85a66.84,66.84,0,0,1,17.87.39v-.73a402.84,402.84,0,0,1-46.51,8.51c-15.57,1.92-31.23,3.12-46.86,4.46L21.53,56.42a14.3,14.3,0,0,0-3,.25c-.62.2-1.23,1-1.72,1.39l-5.27,4.48.59.45c1.07-1.72-1.42-2.46-2.7-2.42a4.1,4.1,0,0,0-2.71,1.14c-1.26,1.1-2.56,2.72-4.42,2.41l.28.36a24.11,24.11,0,0,0-1.83-10c-.18-.44-.9-.25-.72.2a23.67,23.67,0,0,1,1.8,9.83.36.36,0,0,0,.27.36c1.94.33,3.3-.91,4.64-2.13a4,4,0,0,1,2.69-1.39c.66,0,2.71.23,2.05,1.29-.24.38.28.72.59.46l4.52-3.84a15,15,0,0,1,1.88-1.6c1-.56,2.48-.42,3.56-.51l11.8-1c7.73-.66,15.46-1.31,23.18-2,15.44-1.37,30.85-3,46.12-5.74q12.7-2.26,25.26-5.33c.34-.09.37-.66,0-.73-10.34-1.84-20.85-.17-31.15,1.12l-32.3,4L46.7,49.76l.26.64A226.36,226.36,0,0,0,72.05,12.27Q75,6.54,77.65.64L77,.46A343.59,343.59,0,0,1,79,70.4q-.73,9.94-2,19.83c-.07.48.68.48.75,0Z" /><path d="M57.69,33.43a6.71,6.71,0,0,0-7,2.14.39.39,0,0,0-.66.34,92.05,92.05,0,0,1,2.74,27,.35.35,0,0,0,0,.63c-.06,1.11-.13,2.21-.23,3.31,0,.48.71.48.75,0,.1-1.11.17-2.21.23-3.32a13.81,13.81,0,0,0,7.94-4.46c2.39-2.74,3.26-6.18,3.56-9.73C65.43,43.43,64.67,35.1,57.69,33.43Zm4.39,23.41a13,13,0,0,1-8.6,5.91,93.17,93.17,0,0,0-2.6-26.3l.11-.11c1.84-2.94,5.93-2.91,8.67-1.33,3.4,2,4.46,6.23,4.63,9.87C64.48,48.85,64.19,53.37,62.08,56.84Z" /><path d="M83.93,49.58l.17,0c.47,0,.48-.79,0-.75l-.29,0a151.15,151.15,0,0,0-5.74-23c-.11-.32-.66-.4-.73,0q-1.84,12-3.7,23.9h-.09c-.47,0-.48.76,0,.75l-2.2,14.22c-.07.47.65.67.72.2L74.29,50.4l8.89-.76c.59,3.6,1.07,7.22,1.39,10.86,0,.48.79.48.75,0Q84.82,55,83.93,49.58Zm-9.52.06,3.42-22.11A151.38,151.38,0,0,1,83.06,48.9Z" /><path d="M95.61,48.34c3.92-3,3.49-8.67,2.84-13.1-.28-1.93-.72-4.4-2.71-5.31a3,3,0,0,0-3.4.49V29.2a.38.38,0,0,0-.75,0V60.89a.38.38,0,0,0,.75,0V31.6a.37.37,0,0,0,.19-.2A2,2,0,0,1,95,30.46a3.1,3.1,0,0,1,1.89,1.71c.88,1.72,1,4,1.17,5.94.36,3.77-.13,8.24-3.84,10.24a.37.37,0,0,0,.19.69,5.66,5.66,0,0,1,6,6.83c-.83,3.69-4.61,4.64-7.82,5.26-.47.09-.27.81.2.72,3.8-.73,8-2.13,8.47-6.59A6.36,6.36,0,0,0,95.61,48.34Z" /></svg>