<svg xmlns="http://www.w3.org/2000/svg" viewBox="0 0 111.86 90.5"><title>Asset 3</title><g id="Layer_2" data-name="Layer 2"><g id="Layer_1-2" data-name="Layer 1"><path d="M39.92,45.51a82.19,82.19,0,0,1-1,17.86c-.08.47.64.67.72.2a82.17,82.17,0,0,0,1.07-18.06c0-.48-.78-.49-.75,0Z" transform="translate(0 -0.15)"/><path d="M41.71,63.44A11.86,11.86,0,0,0,52.32,54c.81-4.34-1.2-11.87-6.83-11.55-2.93.16-5.2,2.63-7,4.73-.31.36.22.9.53.53,1.8-2.15,4.38-5,7.52-4.45s4.67,4.06,5.08,6.81a11.11,11.11,0,0,1-9.95,12.64c-.47.05-.48.8,0,.75Z" transform="translate(0 -0.15)"/><path d="M56.25,63.16a72.19,72.19,0,0,0,4-23.84.38.38,0,0,0-.75,0,71.51,71.51,0,0,1-4,23.64c-.16.46.56.66.72.2Z" transform="translate(0 -0.15)"/><path d="M65.35,59.41A111.23,111.23,0,0,0,64,45.18c-.39-2.42-1.32-6.58-4.6-6.13-.48.07-.28.79.2.72,3.3-.45,3.68,5.5,4,7.56a111.19,111.19,0,0,1,1,12.08.38.38,0,0,0,.75,0Z" transform="translate(0 -0.15)"/><path d="M63.33,53l-5.45,1.62a.37.37,0,0,0,.2.72l5.45-1.62a.37.37,0,0,0-.2-.72Z" transform="translate(0 -0.15)"/><path d="M74.46,57.26A57.5,57.5,0,0,0,73.32,38c-.1-.47-.83-.27-.72.2a57.09,57.09,0,0,1,1.11,19.06c0,.48.7.48.75,0Z" transform="translate(0 -0.15)"/><path d="M76.78,58.19c3.9-.29,9.49-1.45,9.17-6.5a3.57,3.57,0,0,0-2.8-3.45c-2-.41-5,1.11-6.55-.58l-.27.64c5.25,0,9-5.76,5.74-10.25a5.5,5.5,0,0,0-5.93-2.17,5.7,5.7,0,0,0-4.2,4.89c0,.48.7.48.75,0a5,5,0,0,1,3.79-4.21,4.85,4.85,0,0,1,5.26,2.34c2.49,4-1,8.68-5.41,8.65a.38.38,0,0,0-.26.64c2.37,2.5,7.75-1.35,9,2.66a4.49,4.49,0,0,1-1.8,4.9c-1.86,1.3-4.26,1.53-6.46,1.69-.47,0-.48.78,0,.75Z" transform="translate(0 -0.15)"/><path d="M67.61,90.3a394.87,394.87,0,0,0,1.76-69.95Q68.72,10.41,67.59.52a.37.37,0,0,0-.73-.1A231.6,231.6,0,0,1,40.29,50c-.21.3.14.59.42.55l27.45-4c9.2-1.32,18.4-2.91,27.63-3.88a51.32,51.32,0,0,1,15.6.38v-.73A308.48,308.48,0,0,1,71.61,50.8c-13.86,2-27.82,3.21-41.75,4.58L18.18,56.53a7.53,7.53,0,0,0-2.18.25,10,10,0,0,0-1.81,1.75L10,62.6l.59.45c.83-1.56-.92-2.42-2.27-2.42a3.2,3.2,0,0,0-2.3.95c-1.1,1-2.26,2.92-4,2.6l.27.37a27.4,27.4,0,0,0-1.58-10c-.16-.45-.89-.26-.73.2a26.58,26.58,0,0,1,1.56,9.84.38.38,0,0,0,.28.36c1.64.3,2.78-.78,3.85-1.9A4,4,0,0,1,8,61.41c.7-.09,2.55.16,2,1.27a.38.38,0,0,0,.59.45L14,59.74c.57-.56,1.12-1.18,1.73-1.69a4.71,4.71,0,0,1,2.91-.81l10.44-1c6.9-.69,13.81-1.35,20.7-2.06,13.31-1.36,26.58-3,39.69-5.69q11.15-2.26,22.09-5.36a.38.38,0,0,0,0-.73c-8.86-1.8-17.89-.2-26.71,1.07L56.69,47.5,40.51,49.84l.43.55A232.29,232.29,0,0,0,67.58.62l-.74-.1a393.88,393.88,0,0,1,1.78,70Q68,80.4,66.86,90.3c-.06.48.69.47.75,0Z" transform="translate(0 -0.15)"/></g></g></svg>